<svg width="800" height="600" xmlns="http://www.w3.org/2000/svg">

 <g>
  <title>Layer 1</title>
  <path id="svg_1" d="m424.63443,277.91286c6.24527,6.19228 12.4562,14.22289 18.82886,23.29513c0.91913,-1.38856 1.78662,-2.73467 2.70606,-4.15258c9.22348,-14.22343 19.67576,-30.32786 31.38833,-45.91113c1.85908,-2.53172 3.81132,-4.65904 5.70488,-7.04678c-8.78968,-10.83731 -18.48463,-21.24065 -30.18006,-30.18284c-18.0852,-14.00625 -41.71351,-23.7441 -67.97894,-23.54194l-113.82384,0l0,68.35369l113.84453,0c15.83012,0.31827 25.86607,5.70037 39.51023,19.18645l-0.00004,0zm246.6416,55.93887l0,42.78539c-16.6426,-0.04358 -44.2232,-0.04358 -52.03851,-0.04358c-23.10451,-0.56399 -38.26711,-8.30525 -54.04226,-21.77607c-6.82378,-5.88873 -13.35815,-13.26875 -19.80319,-21.48705c-4.83705,7.13315 -9.71223,14.49834 -14.6733,22.15209c-6.0285,9.261 -12.23936,18.78197 -18.71881,28.14341c-1.6079,2.30069 -3.41184,4.67321 -5.10926,7.00341c26.26232,28.98151 62.69069,53.96963 111.94748,54.27379l52.43786,0l0,42.78547l63.44833,-38.41537l63.55533,-38.50274l-63.55533,-38.45919l-63.44833,-38.45955l0,-0.00002zm-106.0808,-53.33475c15.77515,-13.49983 30.93775,-21.2118 54.04226,-21.77632c7.81533,0 35.39591,0 52.03851,-0.0288l0,42.78621l63.44833,-38.43079l63.55533,-38.45955l-63.55533,-38.48902l-63.44833,-38.4301l0,42.74225l-52.43786,0c-59.43714,0.37674 -100.41388,36.60782 -127.09234,72.49127c-27.18151,36.26093 -46.89516,74.50352 -67.11139,94.48531c-13.66481,13.4419 -23.68009,18.88197 -39.51023,19.18611l-113.84453,0l0,68.35312l113.84453,0c26.26215,0.20263 49.89022,-9.52049 67.97547,-23.5557c18.26792,-13.93375 31.98756,-31.31158 44.29571,-48.80505c24.2066,-35.23319 44.29556,-71.78229 67.79986,-92.06891l0.00002,-0.00002z" stroke="#000" fill="#999999"/>
  <path id="svg_2" d="m414.39062,-113.86682c0.01653,0.01821 0.03297,0.04183 0.04984,0.06851c0.00243,-0.00408 0.00473,-0.00804 0.00716,-0.01221c0.02442,-0.04183 0.05208,-0.0892 0.08309,-0.13503c0.00492,-0.00745 0.01009,-0.0137 0.0151,-0.02073c-0.02327,-0.03187 -0.04893,-0.06247 -0.07989,-0.08877c-0.04787,-0.04119 -0.11042,-0.06984 -0.17994,-0.06924l-0.3013,0l0,0.20104l0.30135,0c0.0419,0.00094 0.06847,0.01677 0.10459,0.05643l0,0zm0.65287,0.16453l0,0.12584c-0.04405,-0.00013 -0.11706,-0.00013 -0.13775,-0.00013c-0.06116,-0.00166 -0.1013,-0.02443 -0.14305,-0.06405c-0.01806,-0.01732 -0.03536,-0.03903 -0.05242,-0.0632c-0.0128,0.02098 -0.02571,0.04264 -0.03884,0.06515c-0.01596,0.02724 -0.0324,0.05524 -0.04955,0.08277c-0.00426,0.00677 -0.00903,0.01374 -0.01352,0.0206c0.06952,0.08524 0.16595,0.15873 0.29633,0.15963l0.13881,0l0,0.12584l0.16795,-0.11299l0.16823,-0.11324l-0.16823,-0.11311l-0.16795,-0.11312l0,0zm-0.2808,-0.15687c0.04176,-0.03971 0.08189,-0.06239 0.14305,-0.06405c0.02069,0 0.0937,0 0.13775,-0.00008l0,0.12584l0.16795,-0.11303l0.16823,-0.11312l-0.16823,-0.1132l-0.16795,-0.11303l0,0.12571l-0.13881,0c-0.15733,0.00111 -0.2658,0.10767 -0.33642,0.21321c-0.07195,0.10665 -0.12413,0.21913 -0.17765,0.2779c-0.03617,0.03953 -0.06268,0.05553 -0.10459,0.05643l-0.30135,0l0,0.20104l0.30135,0c0.06952,0.0006 0.13206,-0.028 0.17994,-0.06928c0.04836,-0.04098 0.08467,-0.09209 0.11725,-0.14354c0.06408,-0.10363 0.11725,-0.21112 0.17947,-0.27079l0,0z" stroke="#000" fill="#999999"/>
  <path transform="rotate(180, 218.215, 318.651)" id="svg_5" d="m238.92094,181.9152c-18.36101,-20.11873 18.70063,-54.16397 35.36119,-30.9728c14.22074,20.10057 -17.38928,45.65671 -35.36119,30.9728zm49.16508,45.78771c-15.00411,-22.15039 26.05108,-45.81625 39.03835,-23.68985c15.41577,23.13734 -26.24208,49.56178 -39.03835,23.68985zm55.97099,55.39931c-18.74489,-12.73138 -0.11631,-42.09857 19.29331,-39.47941c26.9611,4.12881 19.75544,49.20838 -6.54035,46.99839c-5.10453,-0.59399 -9.65227,-3.50238 -12.75296,-7.51898zm46.81774,48.91526c-15.67595,-19.99746 20.47211,-46.26173 35.66811,-27.22012c16.52845,21.18159 -20.35907,49.14029 -35.66811,27.22012zm-90.91316,1.09657c-17.42676,-16.55153 8.15287,-43.295 27.39771,-36.31422c27.96288,8.98063 7.17337,52.15889 -17.78192,42.3495c-3.43287,-1.63155 -6.50705,-3.87588 -9.61579,-6.03528zm-74.1239,0c-20.4822,-19.19272 16.94168,-50.72126 34.47119,-30.64403c17.78516,20.92738 -15.59025,50.62074 -34.47119,30.64403zm-73.21813,-1.09657c-15.68562,-19.99162 20.48219,-46.27082 35.66302,-27.21233c16.48153,21.2153 -20.30315,49.1228 -35.66302,27.21233zm-69.73516,1.09657c-20.48219,-19.19272 16.9417,-50.72126 34.47123,-30.64403c17.78512,20.92738 -15.59028,50.62074 -34.47123,30.64403zm-73.21198,-1.07969c-17.97289,-23.59584 30.63538,-49.34651 38.73945,-19.74587c5.9916,19.80939 -26.45699,37.05931 -38.73945,19.74587zm331.41608,52.44942c-17.46457,-18.18112 13.59837,-49.94312 32.23601,-33.39483c23.01633,16.48535 -7.48071,54.68146 -28.6118,37.0535c-1.19178,-1.23533 -2.413,-2.44215 -3.6242,-3.65867zm-53.00248,45.08476c-14.7223,-21.07004 23.54406,-44.19572 37.36699,-24.43687c18.03107,20.98896 -18.18421,49.58579 -34.86095,28.61756l-2.50604,-4.18069zm-47.4094,56.07112c-15.90599,-14.59959 5.9425,-37.59367 23.25745,-33.68276c26.3552,6.82188 9.74698,49.23044 -14.42659,41.1823c-3.74567,-1.29115 -6.78498,-4.15993 -8.83086,-7.49953z" stroke="#000" fill="#999999"/>
 </g>
</svg>
